<?xml version="1.0" encoding="utf-8"?>
<!-- Generator: Adobe Illustrator 24.3.0, SVG Export Plug-In . SVG Version: 6.00 Build 0)  -->
<svg version="1.1" id="Layer_1" xmlns="http://www.w3.org/2000/svg" xmlns:xlink="http://www.w3.org/1999/xlink" x="0px" y="0px"
	 viewBox="0 0 512 512" style="enable-background:new 0 0 512 512;" xml:space="preserve">
<g>
	<path d="M160.43,324.6c-4.7,0-7.88,0.48-9.53,0.92v30.18c1.95,0.45,4.38,0.57,7.73,0.57c12.27,0,19.82-6.2,19.82-16.67
		C178.45,330.25,171.95,324.6,160.43,324.6z M249.7,324.92c-5.12,0-8.45,0.45-10.43,0.93v66.8c1.98,0.48,5.15,0.48,8,0.48
		c20.93,0.15,34.55-11.38,34.55-35.75C281.98,336.12,269.55,324.92,249.7,324.92z"/>
	<path d="M307.2,0H102.4C74.12,0,51.2,22.95,51.2,51.2v409.6c0,28.28,22.92,51.2,51.2,51.2h307.2c28.25,0,51.2-22.92,51.2-51.2
		V153.6L307.2,0z M191.93,363.27c-7.9,7.43-19.57,10.75-33.18,10.75c-3.02,0-5.77-0.15-7.88-0.48v36.53H128V309.3
		c7.1-1.17,17.12-2.1,31.2-2.1c14.25,0,24.4,2.72,31.23,8.17c6.5,5.17,10.9,13.65,10.9,23.62
		C201.3,349.02,197.98,357.5,191.93,363.27z M289.4,397.95c-10.75,8.95-27.12,13.2-47.1,13.2c-12,0-20.45-0.77-26.23-1.55V309.33
		c8.48-1.38,19.53-2.12,31.2-2.12c19.4,0,31.98,3.47,41.83,10.9c10.62,7.9,17.27,20.45,17.27,38.5
		C306.38,376.15,299.23,389.62,289.4,397.95z M384,326.92h-39.23v23.3h36.65v18.8h-36.65v41.08h-23.2V307.98H384V326.92z
		 M307.2,179.2c-14.18,0-25.6,0-25.6,0v-128l128,128H307.2z"/>
</g>
</svg>
