<?xml version="1.0" encoding="UTF-8"?>
<svg version="1.1" xmlns="http://www.w3.org/2000/svg" width="512" height="512">
<path d="M0 0 C0.79308563 -0.00961258 1.58617126 -0.01922516 2.40328979 -0.02912903 C4.99806962 -0.05403364 7.59261408 -0.06642951 10.1875 -0.07421875 C11.06698303 -0.07750183 11.94646606 -0.08078491 12.8526001 -0.08416748 C27.96010135 -0.10243532 42.36793416 1.12715004 57.1875 4.23828125 C57.96899414 4.39458008 58.75048828 4.55087891 59.55566406 4.71191406 C68.67866914 6.61204837 77.09357295 9.91861789 85.625 13.61328125 C86.50220703 13.98710938 87.37941406 14.3609375 88.28320312 14.74609375 C97.59354618 18.75290314 106.49842796 23.22551368 115.125 28.55078125 C116.28298096 29.2631897 116.28298096 29.2631897 117.46435547 29.98999023 C130.38061144 38.013725 130.38061144 38.013725 135.1875 42.23828125 C135.1875 42.89828125 135.1875 43.55828125 135.1875 44.23828125 C135.72761719 44.46257812 136.26773437 44.686875 136.82421875 44.91796875 C139.93493825 46.65585832 142.4104908 48.94828156 145 51.36328125 C145.5355249 51.86045654 146.0710498 52.35763184 146.62280273 52.86987305 C150.77774527 56.77052126 154.60264578 60.80317315 158.1875 65.23828125 C159.01765625 66.24246094 159.8478125 67.24664062 160.703125 68.28125 C165.84878126 74.59720153 170.54684475 81.08322937 174.875 87.98828125 C175.30917236 88.67986328 175.74334473 89.37144531 176.19067383 90.08398438 C179.1875 94.97286675 179.1875 94.97286675 179.1875 97.23828125 C180.1775 97.56828125 181.1675 97.89828125 182.1875 98.23828125 C182.84765625 100.05078125 182.84765625 100.05078125 183.25 102.23828125 C183.61450873 104.37883422 183.61450873 104.37883422 184.1875 106.23828125 C184.8475 106.56828125 185.5075 106.89828125 186.1875 107.23828125 C188.05604841 111.03787705 189.48646565 115.03602867 191 118.98828125 C191.44923828 120.16100586 191.89847656 121.33373047 192.36132812 122.54199219 C196.2473165 132.94504815 199.10699683 143.33983151 201.1875 154.23828125 C201.41953125 155.41519531 201.6515625 156.59210938 201.890625 157.8046875 C208.80261449 198.83228227 201.27124893 241.51409214 182.1875 278.23828125 C181.68992187 279.264375 181.19234375 280.29046875 180.6796875 281.34765625 C179.42507161 283.778064 178.1784308 285.78566174 176.5 287.92578125 C174.09049658 291.04396215 171.77987563 294.21153036 169.5 297.42578125 C151.56272825 322.03030307 128.12643022 344.39373646 100.1875 357.23828125 C99.5275 357.23828125 98.8675 357.23828125 98.1875 357.23828125 C97.8575 357.89828125 97.5275 358.55828125 97.1875 359.23828125 C94.1875 360.23828125 94.1875 360.23828125 91.1875 360.23828125 C90.8575 360.89828125 90.5275 361.55828125 90.1875 362.23828125 C88.36499023 363.06030273 88.36499023 363.06030273 85.99609375 363.859375 C85.13306641 364.15521484 84.27003906 364.45105469 83.38085938 364.75585938 C82.47142578 365.05943359 81.56199219 365.36300781 80.625 365.67578125 C78.85257995 366.27780851 77.08044086 366.8806636 75.30859375 367.484375 C74.44459961 367.77634766 73.58060547 368.06832031 72.69042969 368.36914062 C70.37087427 369.17460466 68.08238248 370.03503289 65.79296875 370.921875 C61.76491738 372.39257198 58.44668162 372.82610238 54.1875 373.23828125 C49.6653116 373.6579889 49.6653116 373.6579889 46.1875 376.23828125 C46.1875 375.57828125 46.1875 374.91828125 46.1875 374.23828125 C45.28992729 374.45022125 45.28992729 374.45022125 44.3742218 374.66644287 C38.02166602 376.06531606 32.03515649 376.53256791 25.54296875 376.50390625 C24.57015457 376.5058197 23.59734039 376.50773315 22.595047 376.50970459 C20.55725849 376.51105544 18.51946104 376.50743663 16.48168945 376.49902344 C13.36585291 376.48824962 10.25058522 376.49898613 7.13476562 376.51171875 C5.14583207 376.5103981 3.15689886 376.50783766 1.16796875 376.50390625 C0.24082565 376.50795471 -0.68631744 376.51200317 -1.64155579 376.51617432 C-6.13423338 376.4835543 -9.73587062 376.37499734 -13.8125 374.23828125 C-14.1425 374.89828125 -14.4725 375.55828125 -14.8125 376.23828125 C-15.4725 375.57828125 -16.1325 374.91828125 -16.8125 374.23828125 C-19.1093853 373.77719647 -21.42684955 373.41536273 -23.75 373.11328125 C-24.99652344 372.94570313 -26.24304688 372.778125 -27.52734375 372.60546875 C-30.75847021 372.18274125 -30.75847021 372.18274125 -33.8125 372.23828125 C-34.4725 371.90828125 -35.1325 371.57828125 -35.8125 371.23828125 C-35.8125 370.57828125 -35.8125 369.91828125 -35.8125 369.23828125 C-38.7825 368.90828125 -41.7525 368.57828125 -44.8125 368.23828125 C-44.8125 367.57828125 -44.8125 366.91828125 -44.8125 366.23828125 C-45.616875 366.11453125 -46.42125 365.99078125 -47.25 365.86328125 C-52.95 364.86328125 -52.95 364.86328125 -55.5 364.36328125 C-56.61955078 364.15058594 -56.61955078 364.15058594 -57.76171875 363.93359375 C-60.13131133 363.13018903 -61.13136127 362.04910782 -62.8125 360.23828125 C-64.91582891 359.52380482 -64.91582891 359.52380482 -66.8125 359.23828125 C-66.8125 358.57828125 -66.8125 357.91828125 -66.8125 357.23828125 C-67.658125 356.97015625 -68.50375 356.70203125 -69.375 356.42578125 C-72.95104067 355.19042175 -76.35110908 353.76129325 -79.8125 352.23828125 C-79.8125 351.57828125 -79.8125 350.91828125 -79.8125 350.23828125 C-80.76125 349.92890625 -81.71 349.61953125 -82.6875 349.30078125 C-85.8125 348.23828125 -85.8125 348.23828125 -87.8125 347.23828125 C-87.8125 346.57828125 -87.8125 345.91828125 -87.8125 345.23828125 C-92.1164919 343.48978454 -96.46000591 341.86124515 -100.8125 340.23828125 C-100.8125 339.24828125 -100.8125 338.25828125 -100.8125 337.23828125 C-101.8025 336.57828125 -102.7925 335.91828125 -103.8125 335.23828125 C-104.95153103 334.3178794 -106.07580563 333.37902145 -107.1875 332.42578125 C-107.75210938 331.94496094 -108.31671875 331.46414063 -108.8984375 330.96875 C-111.28960908 328.80693569 -113.54156842 326.52603455 -115.8125 324.23828125 C-116.77592402 323.29542212 -117.74079993 322.35404454 -118.70703125 321.4140625 C-119.67971196 320.45966035 -120.65236808 319.50523313 -121.625 318.55078125 C-122.12708984 318.06544922 -122.62917969 317.58011719 -123.14648438 317.08007812 C-124.40667273 315.83703519 -125.61441044 314.54128233 -126.8125 313.23828125 C-126.8125 312.57828125 -126.8125 311.91828125 -126.8125 311.23828125 C-127.4725 311.23828125 -128.1325 311.23828125 -128.8125 311.23828125 C-130.74138989 309.04333758 -132.45743982 306.7543447 -134.11328125 304.34765625 C-135.30628019 302.61622415 -136.55621065 300.9243538 -137.8125 299.23828125 C-138.4725 299.23828125 -139.1325 299.23828125 -139.8125 299.23828125 C-139.915625 298.66078125 -140.01875 298.08328125 -140.125 297.48828125 C-140.68359174 295.20163865 -140.68359174 295.20163865 -142.1328125 293.484375 C-144.86680659 289.82845266 -146.9567987 285.79455002 -149.19140625 281.8203125 C-150.55618267 279.14989383 -150.55618267 279.14989383 -152.8125 278.23828125 C-153.49374706 276.24320058 -154.15677209 274.24189432 -154.8125 272.23828125 C-155.43923158 270.95791974 -156.08637939 269.68741739 -156.75 268.42578125 C-158.61402599 264.81509387 -159.8821175 261.18251255 -161.09765625 257.3125 C-161.81352115 255.05866035 -161.81352115 255.05866035 -163.3125 252.42578125 C-165.59489685 247.57568794 -166.60897689 242.44388122 -167.8125 237.23828125 C-168.05613281 236.31208984 -168.05613281 236.31208984 -168.3046875 235.3671875 C-169.09917251 232.03646189 -169.69257548 228.66740102 -170.3125 225.30078125 C-171.27014301 220.04496864 -171.27014301 220.04496864 -172.34933472 214.81341553 C-172.81711158 212.21264152 -172.93944165 209.82870533 -172.94189453 207.18847656 C-172.94504669 206.21106506 -172.94819885 205.23365356 -172.95144653 204.22662354 C-172.9494223 203.18375183 -172.94739807 202.14088013 -172.9453125 201.06640625 C-172.94626923 199.98824646 -172.94722595 198.91008667 -172.94821167 197.79925537 C-172.94889094 195.52648866 -172.94705429 193.25371999 -172.94287109 190.98095703 C-172.93749843 187.48726094 -172.94283533 183.9936922 -172.94921875 180.5 C-172.94855833 178.29296846 -172.94727793 176.08593701 -172.9453125 173.87890625 C-172.94733673 172.82793762 -172.94936096 171.77696899 -172.95144653 170.69415283 C-172.94829437 169.72934998 -172.94514221 168.76454712 -172.94189453 167.77050781 C-172.94109894 166.91732971 -172.94030334 166.06415161 -172.93948364 165.18511963 C-172.8125 163.23828125 -172.8125 163.23828125 -171.8125 162.23828125 C-171.51730733 160.8523767 -171.27537613 159.45500016 -171.05859375 158.0546875 C-170.92646484 157.20970703 -170.79433594 156.36472656 -170.65820312 155.49414062 C-170.52349609 154.60533203 -170.38878906 153.71652344 -170.25 152.80078125 C-170.04213867 151.47336914 -170.04213867 151.47336914 -169.83007812 150.11914062 C-169.09191294 145.69827197 -169.09191294 145.69827197 -168.8125 141.23828125 C-168.1525 141.23828125 -167.4925 141.23828125 -166.8125 141.23828125 C-166.73773438 140.34367188 -166.66296875 139.4490625 -166.5859375 138.52734375 C-165.74279126 132.64898734 -163.47186228 127.16271254 -161.4375 121.61328125 C-161.03789062 120.494375 -160.63828125 119.37546875 -160.2265625 118.22265625 C-158.41766505 113.23628763 -156.59124151 108.76642177 -153.8125 104.23828125 C-153.11670546 102.04697591 -153.11670546 102.04697591 -152.8125 100.23828125 C-152.1525 100.23828125 -151.4925 100.23828125 -150.8125 100.23828125 C-150.585625 99.59890625 -150.35875 98.95953125 -150.125 98.30078125 C-144.15208875 84.36398834 -134.12489569 72.31270582 -123.7734375 61.375 C-121.67430207 59.19771979 -121.67430207 59.19771979 -119.8125 56.23828125 C-118.2280128 54.85606901 -116.6387331 53.47889217 -115.0234375 52.1328125 C-111.30100929 48.94309928 -107.74798172 45.56277312 -104.16796875 42.21484375 C-101.8125 40.23828125 -101.8125 40.23828125 -99.8125 40.23828125 C-99.8125 39.57828125 -99.8125 38.91828125 -99.8125 38.23828125 C-99.19375 37.99078125 -98.575 37.74328125 -97.9375 37.48828125 C-95.65706841 36.42090026 -95.65706841 36.42090026 -94.875 34.17578125 C-94.524375 33.53640625 -94.17375 32.89703125 -93.8125 32.23828125 C-92.70068359 32.04105469 -92.70068359 32.04105469 -91.56640625 31.83984375 C-88.23455261 31.11203459 -86.39504344 29.72506872 -83.6875 27.67578125 C-79.13644366 24.23828125 -79.13644366 24.23828125 -75.8125 24.23828125 C-75.4825 23.57828125 -75.1525 22.91828125 -74.8125 22.23828125 C-72.43154768 21.01991477 -70.06414393 19.88972608 -67.625 18.80078125 C-66.29782318 18.19869616 -64.9709958 17.59584017 -63.64453125 16.9921875 C-62.99581055 16.69908691 -62.34708984 16.40598633 -61.67871094 16.10400391 C-59.97558277 15.31393424 -58.30029213 14.46455035 -56.62890625 13.609375 C-54.06195583 12.3597223 -51.68202841 11.49415137 -48.9375 10.73828125 C-45.64802105 9.80410898 -42.48727911 8.75819289 -39.3125 7.48828125 C-38.1575 7.07578125 -37.0025 6.66328125 -35.8125 6.23828125 C-34.8225 6.73328125 -34.8225 6.73328125 -33.8125 7.23828125 C-33.8125 6.57828125 -33.8125 5.91828125 -33.8125 5.23828125 C-32.0625 4.94661458 -30.3125 4.65494792 -28.5625 4.36328125 C-26.93441406 4.09064453 -26.93441406 4.09064453 -25.2734375 3.8125 C-22.98809297 3.43332884 -20.70163556 3.06079831 -18.4140625 2.6953125 C-16.81691406 2.43814453 -16.81691406 2.43814453 -15.1875 2.17578125 C-14.20523438 2.01980469 -13.22296875 1.86382812 -12.2109375 1.703125 C-3.60847258 0.03587203 -3.60847258 0.03587203 0 0 Z M2.44140625 22.95703125 C-0.24331047 23.29203923 -2.92656654 23.48079767 -5.625 23.67578125 C-31.44967465 25.76262365 -56.07981654 36.33035549 -77.625 50.30078125 C-78.41519531 50.80738281 -79.20539063 51.31398438 -80.01953125 51.8359375 C-80.61121094 52.29871094 -81.20289063 52.76148437 -81.8125 53.23828125 C-81.8125 53.89828125 -81.8125 54.55828125 -81.8125 55.23828125 C-82.50988281 55.46515625 -83.20726562 55.69203125 -83.92578125 55.92578125 C-87.43421201 57.5209541 -90.11976814 59.73174763 -93 62.23828125 C-93.85102295 62.97087158 -93.85102295 62.97087158 -94.71923828 63.71826172 C-102.72779469 70.68721345 -111.18795672 78.13099098 -116.8125 87.23828125 C-116.8125 88.22828125 -116.8125 89.21828125 -116.8125 90.23828125 C-117.4725 90.23828125 -118.1325 90.23828125 -118.8125 90.23828125 C-118.8125 90.89828125 -118.8125 91.55828125 -118.8125 92.23828125 C-119.4725 92.23828125 -120.1325 92.23828125 -120.8125 92.23828125 C-122.29614999 94.20827294 -123.62720417 96.15575785 -124.9375 98.23828125 C-125.33565918 98.86766602 -125.73381836 99.49705078 -126.14404297 100.14550781 C-149.82765343 138.30608921 -157.2382341 183.46151064 -147.3515625 227.28125 C-142.78447002 243.86178141 -136.99362004 259.62298992 -127.8125 274.23828125 C-127.32394531 275.06714844 -126.83539063 275.89601563 -126.33203125 276.75 C-125.22060528 278.61758674 -124.02600845 280.43535442 -122.8125 282.23828125 C-122.1525 282.23828125 -121.4925 282.23828125 -120.8125 282.23828125 C-120.56886719 283.12773437 -120.32523438 284.0171875 -120.07421875 284.93359375 C-118.71711276 288.48811904 -117.23300274 290.37510282 -114.625 293.11328125 C-113.82320312 293.96921875 -113.02140625 294.82515625 -112.1953125 295.70703125 C-111.01582031 296.96 -111.01582031 296.96 -109.8125 298.23828125 C-108.5344949 299.69033374 -107.26291295 301.14808354 -106 302.61328125 C-102.56452584 306.57891237 -102.56452584 306.57891237 -98.8125 310.23828125 C-98.1525 310.23828125 -97.4925 310.23828125 -96.8125 310.23828125 C-96.3175 311.72328125 -96.3175 311.72328125 -95.8125 313.23828125 C-93.68323017 315.12771574 -91.56440363 316.88245765 -89.3125 318.61328125 C-88.36552246 319.34865112 -88.36552246 319.34865112 -87.39941406 320.09887695 C-79.82160907 326.4205901 -79.82160907 326.4205901 -70.8125 329.23828125 C-70.8125 329.89828125 -70.8125 330.55828125 -70.8125 331.23828125 C-55.37960107 340.45464946 -38.37471009 347.41258394 -20.8125 351.23828125 C-20.07870117 351.40054199 -19.34490234 351.56280273 -18.58886719 351.72998047 C24.43892089 360.76637549 69.90425882 351.36810642 106.8046875 328.02734375 C107.98417969 327.14175781 107.98417969 327.14175781 109.1875 326.23828125 C109.1875 325.57828125 109.1875 324.91828125 109.1875 324.23828125 C109.73921875 324.15449219 110.2909375 324.07070313 110.859375 323.984375 C113.94168854 322.9965866 115.92651284 321.33086298 118.4375 319.30078125 C119.32953125 318.59050781 120.2215625 317.88023437 121.140625 317.1484375 C121.81609375 316.51808594 122.4915625 315.88773437 123.1875 315.23828125 C123.1875 314.57828125 123.1875 313.91828125 123.1875 313.23828125 C123.93 312.99078125 124.6725 312.74328125 125.4375 312.48828125 C128.41773087 311.13363086 130.08669252 309.72812715 132.1875 307.23828125 C132.1875 306.57828125 132.1875 305.91828125 132.1875 305.23828125 C133.1775 304.90828125 134.1675 304.57828125 135.1875 304.23828125 C137.3960766 302.36319963 137.3960766 302.36319963 139.1875 300.23828125 C139.1875 299.57828125 139.1875 298.91828125 139.1875 298.23828125 C139.8475 298.23828125 140.5075 298.23828125 141.1875 298.23828125 C142.80300121 296.39984698 144.28307619 294.56602977 145.75 292.61328125 C146.19327637 292.02788574 146.63655273 291.44249023 147.09326172 290.83935547 C158.28576383 275.86156429 167.39714893 260.06429062 173.1875 242.23828125 C173.5690625 241.12710938 173.950625 240.0159375 174.34375 238.87109375 C175.89555719 234.33759987 177.31497344 229.95443776 178.1875 225.23828125 C178.3525 224.48289062 178.5175 223.7275 178.6875 222.94921875 C180.33174001 215.26753494 181.27392097 207.60258932 181.1875 199.73828125 C181.1875 196.23828125 181.1875 196.23828125 182.1875 193.23828125 C182.28293669 191.13586709 182.31735484 189.03035482 182.3125 186.92578125 C182.31636719 185.26095703 182.31636719 185.26095703 182.3203125 183.5625 C182.19266843 180.36764395 181.74689836 177.38156729 181.1875 174.23828125 C181.1875 172.23828125 181.1875 170.23828125 181.1875 168.23828125 C180.65694228 163.37483551 179.55166444 158.92759653 178.1875 154.23828125 C177.83513503 152.24154641 177.49915441 150.24177386 177.1875 148.23828125 C176.51776887 145.08097735 175.4283831 142.2164007 174.1875 139.23828125 C173.5275 139.23828125 172.8675 139.23828125 172.1875 139.23828125 C172.41179687 138.57441406 172.63609375 137.91054687 172.8671875 137.2265625 C173.30629548 133.13000638 171.91427852 130.10647274 170.3125 126.42578125 C169.99659912 125.68239502 169.68069824 124.93900879 169.35522461 124.1730957 C161.21605253 105.51433462 149.79932184 85.43813985 133.71875 72.67578125 C132.1875 71.23828125 132.1875 71.23828125 131.1875 68.23828125 C128.94257697 66.11441184 128.94257697 66.11441184 126.25 64.05078125 C125.35410156 63.33535156 124.45820313 62.61992187 123.53515625 61.8828125 C121.39221204 60.04703568 121.39221204 60.04703568 119.1875 60.23828125 C118.98125 59.66078125 118.775 59.08328125 118.5625 58.48828125 C116.6600335 55.37515425 114.32455107 54.03088186 111.1875 52.23828125 C110.1975 52.23828125 109.2075 52.23828125 108.1875 52.23828125 C107.8575 51.24828125 107.5275 50.25828125 107.1875 49.23828125 C103.41884752 46.9646687 103.41884752 46.9646687 99.1875 46.23828125 C99.1875 45.57828125 99.1875 44.91828125 99.1875 44.23828125 C95.90178296 42.62172298 92.60793483 41.02242386 89.3125 39.42578125 C87.93578125 38.74805664 87.93578125 38.74805664 86.53125 38.05664062 C81.23339637 35.50098588 76.05442147 33.4439172 70.38867188 31.86206055 C66.74153628 30.82851669 63.25332046 29.39717942 59.73046875 28.0078125 C57.21965393 27.11199799 57.21965393 27.11199799 54.61328125 27.25 C52.1875 27.23828125 52.1875 27.23828125 50.36328125 26.3046875 C47.17423864 24.74165585 43.86311817 24.53792918 40.375 24.17578125 C39.62742432 24.09344238 38.87984863 24.01110352 38.10961914 23.92626953 C20.27865031 21.97930521 20.27865031 21.97930521 2.44140625 22.95703125 Z " fill="#3C8BD4" transform="translate(240.8125,67.76171875)"/>
<path d="M0 0 C12.87 0.495 12.87 0.495 26 1 C32.0437002 23.80123257 32.0437002 23.80123257 34.375 34.1875 C34.54225586 34.92210449 34.70951172 35.65670898 34.88183594 36.41357422 C35.60952077 39.72571391 36 42.58612046 36 46 C36.99 46.495 36.99 46.495 38 47 C38.47021484 48.83374023 38.47021484 48.83374023 38.8359375 51.37109375 C39.71394715 56.68296621 40.87776488 61.87358216 42.1640625 67.09765625 C42.36207458 67.90423676 42.56008667 68.71081726 42.76409912 69.5418396 C43.3818676 72.04935994 44.00302772 74.55601933 44.625 77.0625 C45.25512851 79.60682424 45.8842618 82.15137737 46.5105896 84.69664001 C46.89779106 86.26976967 47.28721582 87.84235414 47.67910767 89.4143219 C49 94.77534081 49 94.77534081 49 97 C49.66 97 50.32 97 51 97 C50.938125 96.34 50.87625 95.68 50.8125 95 C51.02504027 91.59935573 52.01894117 89.16653011 53.27734375 86.03515625 C54.32155355 83.09443568 54.56706899 80.08463346 55 77 C55.66349025 74.79536466 56.41613011 72.63165011 57.171875 70.45703125 C59.55222284 63.39458412 61.29984094 56.42168599 62 49 C62.66 49 63.32 49 64 49 C64 46.69 64 44.38 64 42 C64.66 42 65.32 42 66 42 C66.11214844 40.88238281 66.22429687 39.76476562 66.33984375 38.61328125 C66.95713563 33.67168015 68.22779683 28.97672903 69.5625 24.1875 C70.0255237 22.5152574 70.48530508 20.84211271 70.94140625 19.16796875 C71.14451416 18.43860107 71.34762207 17.7092334 71.55688477 16.95776367 C72.11037681 14.84688256 72.11037681 14.84688256 72 12 C72.43250314 10.65080783 72.91604165 9.31736846 73.4375 8 C74.34951574 5.67369897 75.2090638 3.37280861 76 1 C83.59 1 91.18 1 99 1 C100.2863652 5.76771864 101.56965097 10.53605102 102.84521484 15.30664062 C103.27994797 16.92886625 103.71645714 18.55061702 104.15478516 20.171875 C104.78496733 22.50397772 105.40871673 24.83772048 106.03125 27.171875 C106.22811401 27.89493835 106.42497803 28.61800171 106.62780762 29.36297607 C107.52042135 32.73357572 108 35.48239827 108 39 C108.66 39.33 109.32 39.66 110 40 C110.39465208 42.58317727 110.50806152 45.14188281 110.65625 47.75 C110.7696875 48.4925 110.883125 49.235 111 50 C111.66 50.33 112.32 50.66 113 51 C113.6328125 53.14453125 113.6328125 53.14453125 114.125 55.8125 C114.29257813 56.68519531 114.46015625 57.55789062 114.6328125 58.45703125 C115 61 115 61 115 65 C115.66 65.33 116.32 65.66 117 66 C117.6328125 68.14453125 117.6328125 68.14453125 118.125 70.8125 C118.29257813 71.68519531 118.46015625 72.55789063 118.6328125 73.45703125 C119 76 119 76 119 80 C119.66 80.33 120.32 80.66 121 81 C121.8013619 83.85741085 122.49708506 86.66711443 123.125 89.5625 C123.30675781 90.36880859 123.48851562 91.17511719 123.67578125 92.00585938 C124.12467118 94.00223825 124.56329743 96.0009198 125 98 C127.84167834 86.85961499 130.57861709 75.6973319 133.1875 64.5 C133.43709473 63.43990723 133.68668945 62.37981445 133.94384766 61.28759766 C135.37496892 55.09893907 136.56556352 48.92559903 137.50878906 42.64331055 C138.12211626 39.34286644 139.19485094 36.32632015 140.3359375 33.1796875 C141.45720195 29.49930185 141.69633495 25.8261796 142 22 C142.66 22 143.32 22 144 22 C143.67 20.68 143.34 19.36 143 18 C143.66 18 144.32 18 145 18 C145.07347656 17.1646875 145.07347656 17.1646875 145.1484375 16.3125 C145.22320312 15.549375 145.29796875 14.78625 145.375 14 C145.44460938 13.2575 145.51421875 12.515 145.5859375 11.75 C146.13734757 8.0878048 147.06607717 4.58383395 148 1 C151.79126598 0.80371586 155.58302172 0.61946104 159.375 0.4375 C160.45523438 0.38142578 161.53546875 0.32535156 162.6484375 0.26757812 C163.6796875 0.21923828 164.7109375 0.17089844 165.7734375 0.12109375 C166.72653809 0.0739624 167.67963867 0.02683105 168.66162109 -0.02172852 C171 0 171 0 173 1 C172.67 4.3 172.34 7.6 172 11 C171.34 11 170.68 11 170 11 C169.97421875 11.54785156 169.9484375 12.09570312 169.921875 12.66015625 C169.42519101 19.60244379 167.76087454 26.02102562 165.83984375 32.6796875 C164.8365211 36.07549835 164.8365211 36.07549835 165 40 C164.34 40 163.68 40 163 40 C162.67 43.96 162.34 47.92 162 52 C161.34 52 160.68 52 160 52 C159.88527344 53.09183594 159.77054688 54.18367188 159.65234375 55.30859375 C158.98426531 60.64265412 157.77905167 65.83097315 156.5625 71.0625 C156.34529297 72.01705078 156.12808594 72.97160156 155.90429688 73.95507812 C154.74048925 79.01921399 153.42954301 84.00339388 152 89 C151.42591033 91.22002132 150.86227139 93.44276883 150.30859375 95.66796875 C150.00373047 96.89064453 149.69886719 98.11332031 149.38476562 99.37304688 C149.07216797 100.63181641 148.75957031 101.89058594 148.4375 103.1875 C148.12103516 104.45787109 147.80457031 105.72824219 147.47851562 107.03710938 C146.89326028 109.38682882 146.30848927 111.73666899 145.72436523 114.08666992 C145.29865742 115.79882745 144.86935759 117.51011149 144.43164062 119.21923828 C143.60105663 122.64586704 143.14634202 126.15556116 142.59765625 129.63671875 C142.40042969 130.41660156 142.20320312 131.19648438 142 132 C141.34 132.33 140.68 132.66 140 133 C139.5720382 134.86309092 139.5720382 134.86309092 139.4375 137 C139.09589041 140.90410959 139.09589041 140.90410959 138 142 C136.14630389 142.08737645 134.28932459 142.10698153 132.43359375 142.09765625 C131.30888672 142.09443359 130.18417969 142.09121094 129.02539062 142.08789062 C127.84138672 142.07951172 126.65738281 142.07113281 125.4375 142.0625 C124.24962891 142.05798828 123.06175781 142.05347656 121.83789062 142.04882812 C118.89187774 142.03699675 115.94596319 142.02051287 113 142 C113 141.34 113 140.68 113 140 C112.34 140 111.68 140 111 140 C110.86722656 139.24074219 110.73445313 138.48148438 110.59765625 137.69921875 C110.33275391 136.20841797 110.33275391 136.20841797 110.0625 134.6875 C109.80146484 133.20830078 109.80146484 133.20830078 109.53515625 131.69921875 C108.87236469 128.35623359 108.44186599 126.44186599 106 124 C106.66 124 107.32 124 108 124 C106.5632038 119.59790099 105.10844575 115.23268823 103.375 110.9375 C102.28316164 108.12021761 101.74231841 105.56790255 101.4375 102.5625 C101.2209375 100.7990625 101.2209375 100.7990625 101 99 C100.34 98.67 99.68 98.34 99 98 C99 96.68 99 95.36 99 94 C98.56383744 92.11641227 98.07021579 90.24575525 97.5390625 88.38671875 C97.07886719 86.7615332 97.07886719 86.7615332 96.609375 85.10351562 C96.28453125 83.97623047 95.9596875 82.84894531 95.625 81.6875 C95.30789062 80.57181641 94.99078125 79.45613281 94.6640625 78.30664062 C93.78098353 75.20298599 92.89184327 72.10114583 92 69 C90.76379361 64.69484509 89.54904254 60.38511116 88.375 56.0625 C88.11460937 55.10472656 87.85421875 54.14695313 87.5859375 53.16015625 C87.39257812 52.44730469 87.19921875 51.73445313 87 51 C83.73404167 59.08115331 81.36312882 67.18235491 79.44580078 75.67895508 C79.02399346 77.46788916 78.51850518 79.23666256 78 81 C77.01 81.495 77.01 81.495 76 82 C75.75765443 83.58070441 75.52697103 85.16370765 75.34033203 86.75195312 C74.62085821 91.5044029 73.20388731 96.11965209 71.9375 100.75 C71.63384521 101.87003418 71.33019043 102.99006836 71.01733398 104.14404297 C67.54985871 116.8232361 63.79143324 129.41441122 60 142 C52.41 142 44.82 142 37 142 C33.62992056 133.01312149 33.62992056 133.01312149 32.9375 129.59765625 C32.78216797 128.85765381 32.62683594 128.11765137 32.46679688 127.35522461 C32.31275391 126.59862549 32.15871094 125.84202637 32 125.0625 C30.86472005 119.71470552 29.63554256 114.5755047 27.7734375 109.4296875 C26.46255905 105.3116754 25.58347215 101.08274842 24.62768555 96.87109375 C23.18581292 90.59720279 21.48853164 84.41312312 19.66259766 78.24047852 C18.62792344 74.65627784 17.85981277 71.25173589 17.48046875 67.53515625 C17.24263672 65.78525391 17.24263672 65.78525391 17 64 C16.34 63.67 15.68 63.34 15 63 C14.41499782 60.79161677 13.931345 58.55596284 13.5 56.3125 C12.60762183 51.71966234 11.48793864 47.42987055 10 43 C9.29964107 40.26226526 8.68269833 37.50684784 8.0625 34.75 C6.77190183 29.12291938 5.38381816 23.5776698 3.61328125 18.078125 C2.92316549 15.73964357 2.4714205 13.3913185 2 11 C1.649375 9.824375 1.29875 8.64875 0.9375 7.4375 C0 4 0 4 0 0 Z " fill="#3C8CD4" transform="translate(130,184)"/>
<path d="M0 0 C0.00879936 1.345177 0.00879936 1.345177 0.01777649 2.7175293 C0.07581285 11.19170989 0.14795209 19.66562998 0.23571491 28.13955688 C0.28033726 32.49552541 0.31961103 36.85140216 0.34643555 41.20751953 C0.37255008 45.41576996 0.41300933 49.62366568 0.46318626 53.83169556 C0.47980009 55.43270436 0.49134839 57.03377444 0.49761391 58.63485718 C0.12406052 71.65849882 0.12406052 71.65849882 5.75 82.9375 C11.03903865 85.43510159 16.40067249 85.34798625 22 84 C25.53756484 81.95607365 26.7497553 80.70252879 28.12670898 76.83691406 C29.02598707 72.88582254 29.23949906 69.25478579 29.16015625 65.234375 C29.15181007 64.1250209 29.15181007 64.1250209 29.14329529 62.99325562 C29.13091339 61.40401516 29.11427645 59.8148031 29.09375 58.22564697 C29.04037085 53.99691328 29.02133085 49.76807628 29.00390625 45.5390625 C28.99799973 44.23924942 28.99799973 44.23924942 28.99197388 42.91317749 C28.96699904 33.64494148 29.20709535 24.38791273 29.5 15.125 C29.52409943 14.35458374 29.54819885 13.58416748 29.57302856 12.79040527 C29.707681 8.52665952 29.85004883 4.26323934 30 0 C35.52735033 -1.03637819 40.71812294 -0.92573689 46.3125 -0.52734375 C47.42334961 -0.45283997 47.42334961 -0.45283997 48.55664062 -0.37683105 C50.37132671 -0.25463244 52.1856987 -0.12778459 54 0 C54.02333058 13.80340887 54.04091354 27.6068147 54.05181217 41.41023922 C54.05704166 47.81899128 54.0641405 54.22773015 54.07543945 60.63647461 C54.08626599 66.81559441 54.09227634 72.99470148 54.09487724 79.17383003 C54.09673192 81.5370561 54.10035332 83.90028144 54.10573006 86.26350212 C54.11293738 89.56101896 54.11399107 92.85848247 54.11352539 96.15600586 C54.11712067 97.14358887 54.12071594 98.13117188 54.12442017 99.14868164 C54.1230455 100.04195663 54.12167084 100.93523163 54.12025452 101.85557556 C54.12117631 102.63633422 54.1220981 103.41709288 54.12304783 104.22151089 C54 106 54 106 53 107 C51.43827255 107.08685603 49.87270656 107.10702219 48.30859375 107.09765625 C47.36435547 107.09443359 46.42011719 107.09121094 45.44726562 107.08789062 C44.45404297 107.07951172 43.46082031 107.07113281 42.4375 107.0625 C41.44041016 107.05798828 40.44332031 107.05347656 39.41601562 107.04882812 C36.94395151 107.03700007 34.47200482 107.02051849 32 107 C31.67 105.02 31.34 103.04 31 101 C30.19175781 101.40992188 29.38351562 101.81984375 28.55078125 102.2421875 C27.48214844 102.78101563 26.41351563 103.31984375 25.3125 103.875 C24.25675781 104.40867187 23.20101562 104.94234375 22.11328125 105.4921875 C21.08589844 105.98976563 20.05851562 106.48734375 19 107 C17.7934375 107.5878125 17.7934375 107.5878125 16.5625 108.1875 C13.19205843 109.25617659 10.21444046 109.19092412 6.6875 109.125 C5.43324219 109.10695313 4.17898438 109.08890625 2.88671875 109.0703125 C1.93410156 109.04710937 0.98148437 109.02390625 0 109 C0 108.34 0 107.68 0 107 C-1.98 107.495 -1.98 107.495 -4 108 C-4 107.34 -4 106.68 -4 106 C-5.093125 105.731875 -6.18625 105.46375 -7.3125 105.1875 C-10.6947541 104.09829953 -11.89143992 103.66344431 -14 101 C-14.66 100.34 -15.32 99.68 -16 99 C-16.66 98.34 -17.32 97.68 -18 97 C-18.66 96.67 -19.32 96.34 -20 96 C-20.37938617 94.00822259 -20.70285977 92.00569659 -21 90 C-21.32750244 88.9375708 -21.65500488 87.8751416 -21.99243164 86.78051758 C-23.03723868 82.860276 -23.44985462 79.16547206 -23.62109375 75.13671875 C-23.67770424 73.94026985 -23.67770424 73.94026985 -23.73545837 72.71965027 C-24.27283293 59.50114892 -24.10948058 46.25437301 -24.06866455 33.02740479 C-24.05826914 29.29236427 -24.05383288 25.55731657 -24.04882812 21.82226562 C-24.03823663 14.54815803 -24.02126488 7.27408508 -24 0 C-20.56296699 -0.19682269 -17.12536573 -0.38085152 -13.6875 -0.5625 C-12.71103516 -0.61857422 -11.73457031 -0.67464844 -10.72851562 -0.73242188 C-9.32182617 -0.80493164 -9.32182617 -0.80493164 -7.88671875 -0.87890625 C-7.02264404 -0.9260376 -6.15856934 -0.97316895 -5.26831055 -1.02172852 C-3 -1 -3 -1 0 0 Z " fill="#3C8BD4" transform="translate(328,219)"/>
<path d="M0 0 C0.99 0 1.98 0 3 0 C3.33 1.98 3.66 3.96 4 6 C3.01 5.67 2.02 5.34 1 5 C0.67 3.35 0.34 1.7 0 0 Z " fill="#3374DD" transform="translate(144,242)"/>
<path d="M0 0 C0.66 0 1.32 0 2 0 C1.67 0.66 1.34 1.32 1 2 C0.67 1.34 0.34 0.68 0 0 Z " fill="#0055FF" transform="translate(68,221)"/>
<path d="" fill="#00FFFF" transform="translate(0,0)"/>
<path d="" fill="#7F7FFF" transform="translate(0,0)"/>
<path d="" fill="#007FFF" transform="translate(0,0)"/>
<path d="" fill="#7F7FFF" transform="translate(0,0)"/>
<path d="" fill="#0000FF" transform="translate(0,0)"/>
<path d="" fill="#FFFFFF" transform="translate(0,0)"/>
<path d="" fill="#00FFFF" transform="translate(0,0)"/>
<path d="" fill="#0000FF" transform="translate(0,0)"/>
<path d="" fill="#0000FF" transform="translate(0,0)"/>
<path d="" fill="#0000FF" transform="translate(0,0)"/>
<path d="" fill="#00FFFF" transform="translate(0,0)"/>
<path d="" fill="#0000FF" transform="translate(0,0)"/>
<path d="" fill="#0000FF" transform="translate(0,0)"/>
<path d="" fill="#00FFFF" transform="translate(0,0)"/>
<path d="" fill="#00FFFF" transform="translate(0,0)"/>
<path d="" fill="#0000FF" transform="translate(0,0)"/>
<path d="" fill="#0000FF" transform="translate(0,0)"/>
<path d="" fill="#0000FF" transform="translate(0,0)"/>
<path d="" fill="#0000FF" transform="translate(0,0)"/>
<path d="" fill="#0000FF" transform="translate(0,0)"/>
<path d="" fill="#0000FF" transform="translate(0,0)"/>
<path d="" fill="#00FFFF" transform="translate(0,0)"/>
<path d="" fill="#00FFFF" transform="translate(0,0)"/>
<path d="" fill="#FFFFFF" transform="translate(0,0)"/>
<path d="" fill="#0000FF" transform="translate(0,0)"/>
<path d="" fill="#0000FF" transform="translate(0,0)"/>
<path d="" fill="#0000FF" transform="translate(0,0)"/>
<path d="" fill="#00FFFF" transform="translate(0,0)"/>
<path d="" fill="#00FFFF" transform="translate(0,0)"/>
<path d="" fill="#0000FF" transform="translate(0,0)"/>
<path d="" fill="#0000FF" transform="translate(0,0)"/>
<path d="" fill="#0000FF" transform="translate(0,0)"/>
<path d="" fill="#00FFFF" transform="translate(0,0)"/>
<path d="" fill="#0000FF" transform="translate(0,0)"/>
<path d="" fill="#0000FF" transform="translate(0,0)"/>
<path d="" fill="#0000FF" transform="translate(0,0)"/>
<path d="" fill="#00FFFF" transform="translate(0,0)"/>
<path d="" fill="#0000FF" transform="translate(0,0)"/>
<path d="" fill="#0000FF" transform="translate(0,0)"/>
<path d="" fill="#0000FF" transform="translate(0,0)"/>
<path d="" fill="#0000FF" transform="translate(0,0)"/>
<path d="" fill="#0000FF" transform="translate(0,0)"/>
<path d="" fill="#0000FF" transform="translate(0,0)"/>
<path d="" fill="#0000FF" transform="translate(0,0)"/>
<path d="" fill="#00FFFF" transform="translate(0,0)"/>
<path d="" fill="#0000FF" transform="translate(0,0)"/>
<path d="" fill="#0000FF" transform="translate(0,0)"/>
<path d="" fill="#0000FF" transform="translate(0,0)"/>
<path d="" fill="#00FFFF" transform="translate(0,0)"/>
<path d="" fill="#00FFFF" transform="translate(0,0)"/>
<path d="" fill="#0000FF" transform="translate(0,0)"/>
<path d="" fill="#00FFFF" transform="translate(0,0)"/>
<path d="" fill="#0000FF" transform="translate(0,0)"/>
<path d="" fill="#00FFFF" transform="translate(0,0)"/>
<path d="" fill="#0000FF" transform="translate(0,0)"/>
<path d="" fill="#00FFFF" transform="translate(0,0)"/>
<path d="" fill="#0000FF" transform="translate(0,0)"/>
<path d="" fill="#00FFFF" transform="translate(0,0)"/>
<path d="" fill="#0000FF" transform="translate(0,0)"/>
<path d="" fill="#0000FF" transform="translate(0,0)"/>
<path d="" fill="#0000FF" transform="translate(0,0)"/>
<path d="" fill="#00FFFF" transform="translate(0,0)"/>
<path d="" fill="#0000FF" transform="translate(0,0)"/>
<path d="" fill="#0000FF" transform="translate(0,0)"/>
<path d="" fill="#0000FF" transform="translate(0,0)"/>
<path d="" fill="#00FFFF" transform="translate(0,0)"/>
<path d="" fill="#0000FF" transform="translate(0,0)"/>
<path d="" fill="#0000FF" transform="translate(0,0)"/>
<path d="" fill="#0000FF" transform="translate(0,0)"/>
<path d="" fill="#00FFFF" transform="translate(0,0)"/>
</svg>
